<?xml version="1.0" encoding="utf-8"?>
<!-- Generator: Adobe Illustrator 16.0.0, SVG Export Plug-In . SVG Version: 6.00 Build 0)  -->
<!DOCTYPE svg PUBLIC "-//W3C//DTD SVG 1.1//EN" "http://www.w3.org/Graphics/SVG/1.1/DTD/svg11.dtd">
<svg version="1.1" id="Layer_1" xmlns="http://www.w3.org/2000/svg" xmlns:xlink="http://www.w3.org/1999/xlink" x="0px" y="0px"
	 width="256px" height="256px" viewBox="0 0 256 256" enable-background="new 0 0 256 256" xml:space="preserve">
<g>
	<g>
		<path fill="none" d="M1,257.968C1,172.312,1,86.656,1,1c85.656,0,171.312,0,256.968,0c0,85.656,0,171.312,0,256.968
			C172.312,257.968,86.656,257.968,1,257.968z M238.432,175.691c-9.11-19.359-4.843-39.425-5.781-59.05
			c-0.128-2.659-0.21-5.347,0.031-7.99c0.294-3.222,1.189-6.399,1.34-9.62c0.063-1.356-0.763-3.198-1.811-4.056
			c-1.486-1.218-3.504-1.859-5.374-2.525c-27.723-9.882-55.478-19.67-83.178-29.614c-10.027-3.599-19.853-3.384-29.755,0.36
			c-28.151,10.646-56.357,21.147-84.45,31.942c-3.119,1.199-5.652,3.919-8.457,5.935c2.729,1.917,5.208,4.472,8.225,5.653
			c27.87,10.915,55.874,21.485,83.747,32.391c10.841,4.241,21.24,4.023,31.931-0.566c25.979-11.15,52.084-22.006,78.14-32.974
			c1.466-0.617,2.957-1.177,4.917-1.953c0,10.743-0.102,20.73,0.024,30.714c0.171,13.483,0.683,26.982-4.867,39.763
			c-0.166,0.382,0.085,0.946,0.161,1.591C227.968,175.691,232.607,175.691,238.432,175.691z M58.477,135.291
			c0,8.104-0.406,15.758,0.108,23.348c0.578,8.544,5.495,14.395,13.305,17.801c14.178,6.185,28.328,12.435,42.556,18.501
			c8.499,3.623,17.209,3.756,25.742,0.159c14.712-6.202,29.34-12.608,43.995-18.944c5.641-2.438,10.558-6.46,11.484-12.342
			c1.474-9.355,1.329-18.966,1.86-28.321c-12.564-1.209-23.437-0.671-33.746,4.945c-5.957,3.245-12.477,5.484-18.803,8.025
			c-9.229,3.704-18.735,4.956-28.3,1.645c-10.048-3.479-20.189-6.871-29.829-11.305C77.75,134.618,68.512,134.871,58.477,135.291z"
			/>
		<path fill-rule="evenodd" clip-rule="evenodd" d="M238.432,175.691c-5.824,0-10.464,0-15.157,0
			c-0.076-0.645-0.327-1.209-0.161-1.591c5.55-12.78,5.038-26.279,4.867-39.763c-0.126-9.984-0.024-19.972-0.024-30.714
			c-1.96,0.776-3.451,1.336-4.917,1.953c-26.056,10.968-52.161,21.824-78.14,32.974c-10.691,4.59-21.09,4.808-31.931,0.566
			c-27.874-10.905-55.877-21.476-83.747-32.391c-3.017-1.181-5.496-3.736-8.225-5.653c2.805-2.016,5.338-4.736,8.457-5.935
			c28.093-10.794,56.299-21.296,84.45-31.942c9.903-3.745,19.728-3.959,29.755-0.36c27.7,9.944,55.455,19.732,83.178,29.614
			c1.87,0.666,3.888,1.308,5.374,2.525c1.048,0.858,1.874,2.7,1.811,4.056c-0.15,3.221-1.046,6.398-1.34,9.62
			c-0.241,2.643-0.159,5.332-0.031,7.99C233.589,136.267,229.321,156.332,238.432,175.691z" style="fill: #017197"/>
		<path fill-rule="evenodd" clip-rule="evenodd" d="M58.477,135.291c10.035-0.42,19.273-0.673,28.373,3.512
			c9.639,4.434,19.78,7.825,29.829,11.305c9.565,3.312,19.072,2.06,28.3-1.645c6.326-2.541,12.846-4.78,18.803-8.025
			c10.31-5.616,21.182-6.154,33.746-4.945c-0.531,9.355-0.387,18.966-1.86,28.321c-0.927,5.882-5.844,9.903-11.484,12.342
			c-14.655,6.336-29.283,12.742-43.995,18.944c-8.533,3.597-17.243,3.464-25.742-0.159c-14.228-6.066-28.378-12.316-42.556-18.501
			c-7.81-3.406-12.727-9.257-13.305-17.801C58.071,151.049,58.477,143.396,58.477,135.291z" style="fill: #017197"/>
	</g>
</g>
</svg>
