<?xml version="1.0" encoding="utf-8"?>
<!-- Svg Vector Icons : http://www.onlinewebfonts.com/icon -->
<!DOCTYPE svg PUBLIC "-//W3C//DTD SVG 1.1//EN" "http://www.w3.org/Graphics/SVG/1.1/DTD/svg11.dtd">
<svg version="1.1" xmlns="http://www.w3.org/2000/svg" xmlns:xlink="http://www.w3.org/1999/xlink" x="0px" y="0px" viewBox="0 0 1000 1000" enable-background="new 0 0 1000 1000" xml:space="preserve">
<metadata> Svg Vector Icons : http://www.onlinewebfonts.com/icon </metadata>
<g><path d="M818.5,117.5c-52.3-33.3-107.6-35.7-131.6-34.9L478.7,322c56,15.5,107.3,45.2,149.5,87.4c24.6,24.6,45,52.4,60.8,82.4l212.5-268C891.9,198.6,867.9,149,818.5,117.5z" style="fill: #017197"/><path d="M818.5,117.5c-52.3-33.3-107.6-35.7-131.6-34.9L478.7,322c56,15.5,107.3,45.2,149.5,87.4c24.6,24.6,45,52.4,60.8,82.4l212.5-268C891.9,198.6,867.9,149,818.5,117.5z"/><path d="M818.5,117.5c-48-30.6-98.5-35.1-125-35c-4.4,0.3-8.3,2.3-11.2,5.3L478.7,322c56,15.4,107.3,45.2,149.5,87.4c24.6,24.6,45,52.4,60.8,82.4l207.9-262.2c1.5-2.5,2.3-5.4,2.3-8.5c0-1.8-0.3-3.6-0.9-5.3C887.1,189.1,863.2,145.9,818.5,117.5z" style="fill: #017197"/><path d="M278.7,786c-38.9-28.7-82.1-41.6-128.4-38.2c-8,0.6-15.4,1.6-22.1,2.9c13.4,64.6,12.2,109.8,6.7,140.1c22.7,3.8,41.5,7.2,57.7,10.1c58.3,10.4,85.5,15.3,155.1,16.5C348.4,885.7,339.1,830.7,278.7,786z" style="fill: #017197"/><path d="M969.9,253.8c5.2-6.3,8.3-14.3,8.3-23.1c0-4.7-0.9-9.2-2.5-13.4c-6.4-22.4-35.7-108.3-118.2-160.9C776.1,4.6,690,8.9,667.9,11.2l0,0c-9.7,0.4-18.5,4.6-24.8,11.2l-2.4,2.7c-0.3,0.4-0.7,0.8-1,1.3c-0.1,0.2-0.2,0.4-0.3,0.5L393.4,309.8c-1.9,0-3.8-0.1-5.7-0.1c-66.7,0-126.5,11.9-177.9,35.3c-48.1,21.9-87.7,53.4-117.9,93.6C34.3,515.1,16.8,618.9,45,716.1c37.5,129.2,14.7,178.1,12.3,182.8l-35.4,47l59.5,9.4c42.3,6.7,73.5,12.3,98.5,16.8C250.7,984.8,280,990,387.6,990c90.9,0,176.3-35.4,240.5-99.6c64.2-64.2,99.6-149.7,99.6-240.5c0-27-3.1-53.4-9.2-79L969.9,253.8L969.9,253.8z M347.8,917.3c-69.7-1.2-96.8-6.1-155.1-16.5c-16.2-2.9-35-6.3-57.7-10.1c5.5-30.3,6.7-75.5-6.7-140.1c6.6-1.2,14.1-2.3,22.1-2.9c46.4-3.4,89.6,9.5,128.4,38.2C339.1,830.7,348.4,885.7,347.8,917.3z M420.1,915.7c0-10.7-0.7-22.8-2.7-35.9c-6.5-41.9-28.5-102.3-95.7-152C269.3,689.1,208.2,671,145,675.6c-12.7,0.9-24.3,2.7-34.5,4.8c-15.9-70.7-1.7-143.8,39.3-198.3c49.1-65.4,131.4-99.9,237.9-99.9c147.7,0,267.8,120.1,267.8,267.8C655.4,786.5,552.5,899.6,420.1,915.7z M896.8,229.6L689,491.7c-15.8-30-36.2-57.8-60.8-82.4c-42.2-42.2-93.5-71.9-149.5-87.4L682.3,87.8c0,0,0,0,0,0c0.5-0.6,1.1-1.1,1.7-1.6c0.4-0.3,0.8-0.6,1.2-0.9c0,0,0,0,0,0c0.2-0.1,0.4-0.3,0.7-0.4c0.2-0.1,0.4-0.3,0.7-0.4c0.4-0.2,0.9-0.5,1.4-0.7c0,0,0,0,0,0c0.2-0.1,0.5-0.2,0.7-0.3c1.5-0.6,3.1-0.9,4.7-1c0.7,0,1.5,0,2.3,0c0.5,0,1.1,0,1.7,0c1.3,0,2.7,0,4.2,0.1c0.3,0,0.6,0,0.9,0c0.1,0,0.2,0,0.3,0c0.2,0,0.5,0,0.7,0c0.4,0,0.8,0,1.2,0c1.3,0,2.6,0.1,3.9,0.2c1.8,0.1,3.6,0.2,5.5,0.4c0.9,0.1,1.8,0.2,2.8,0.3c0.3,0,0.7,0.1,1,0.1c0.7,0.1,1.4,0.1,2.2,0.2c1.2,0.1,2.5,0.3,3.8,0.4c0.9,0.1,1.9,0.2,2.9,0.4c0.6,0.1,1.1,0.1,1.7,0.2c1.5,0.2,3.1,0.4,4.7,0.7c1.5,0.2,3.1,0.5,4.7,0.8c1,0.2,2.1,0.4,3.1,0.6c1.3,0.3,2.6,0.5,3.9,0.8l2,0.4c1.4,0.3,2.7,0.6,4.1,0.9c1.4,0.3,2.8,0.7,4.1,1c0.8,0.2,1.6,0.4,2.4,0.6c1.3,0.3,2.6,0.7,3.9,1.1h0c1.4,0.4,2.8,0.8,4.2,1.3c0,0,0,0,0,0c2.8,0.9,5.7,1.8,8.6,2.8c1.4,0.5,2.9,1,4.4,1.6c0.7,0.3,1.5,0.6,2.2,0.8c0.1,0,0.2,0.1,0.3,0.1c3.8,1.5,7.7,3.1,11.5,4.9c0.5,0.2,1,0.4,1.5,0.7c1.5,0.7,3,1.4,4.5,2.1c1.5,0.7,3,1.5,4.5,2.3c0.7,0.3,1.3,0.7,2,1c0.7,0.3,1.3,0.7,2,1.1c3.9,2.1,7.8,4.5,11.7,6.9c1.4,0.9,2.8,1.8,4.2,2.8c0.1,0.1,0.2,0.1,0.3,0.2c0.2,0.2,0.4,0.3,0.7,0.5c0.4,0.3,0.8,0.5,1.1,0.8c0.7,0.5,1.4,0.9,2,1.4c0.3,0.2,0.6,0.4,0.9,0.7c0.2,0.1,0.4,0.3,0.6,0.4c0.2,0.1,0.3,0.3,0.5,0.4c0.2,0.2,0.5,0.4,0.7,0.5c0.2,0.2,0.4,0.3,0.6,0.5c0.1,0.1,0.2,0.1,0.3,0.2c0.6,0.5,1.3,1,1.9,1.5c0.6,0.5,1.3,1,1.9,1.5c1.2,1,2.4,2,3.6,2.9c0.2,0.1,0.3,0.3,0.4,0.4c0.2,0.1,0.3,0.3,0.5,0.4c0.3,0.3,0.6,0.5,0.9,0.8c0.7,0.6,1.5,1.3,2.2,1.9c0.4,0.4,0.9,0.8,1.3,1.1c0,0,0,0,0,0c0.2,0.1,0.3,0.3,0.5,0.4c1.3,1.1,2.5,2.3,3.7,3.5c0.2,0.2,0.4,0.4,0.6,0.6c1.2,1.1,2.3,2.3,3.4,3.4c0.2,0.2,0.3,0.3,0.5,0.5c0.3,0.4,0.7,0.7,1,1.1c1.1,1.1,2.1,2.2,3.1,3.3c0.6,0.6,1.1,1.2,1.6,1.8c0.4,0.5,0.8,0.9,1.2,1.4c1.5,1.7,3,3.5,4.5,5.3c0.2,0.2,0.3,0.4,0.5,0.6c0.3,0.4,0.7,0.8,1,1.3c0.2,0.3,0.4,0.6,0.7,0.8c0.2,0.2,0.4,0.5,0.5,0.7c0.9,1.1,1.7,2.2,2.6,3.4c0,0.1,0.1,0.1,0.1,0.2c0.3,0.4,0.6,0.7,0.8,1.1h0c0,0,0.1,0.1,0.1,0.2c0.3,0.5,0.7,0.9,1,1.4c0.1,0.1,0.2,0.2,0.2,0.3c0.2,0.3,0.4,0.6,0.7,0.9c0.2,0.3,0.4,0.6,0.6,0.9c0.3,0.4,0.6,0.9,0.9,1.3c0.2,0.3,0.4,0.5,0.6,0.8c0.2,0.3,0.4,0.6,0.6,0.8c0.2,0.2,0.3,0.5,0.5,0.7c0.2,0.3,0.4,0.6,0.6,0.9c0.1,0.1,0.1,0.2,0.2,0.3c0,0,0,0,0,0c0.3,0.4,0.6,0.9,0.9,1.3c0.4,0.5,0.7,1.1,1.1,1.6c0.1,0.1,0.2,0.3,0.3,0.4c0.6,0.9,1.1,1.7,1.7,2.6c0.2,0.3,0.4,0.7,0.7,1c0.1,0.2,0.2,0.3,0.3,0.5c0.1,0.1,0.1,0.2,0.2,0.3c0.3,0.6,0.7,1.2,1.1,1.7c0.4,0.6,0.7,1.2,1.1,1.8c0.2,0.3,0.3,0.5,0.5,0.8c0,0.1,0.1,0.1,0.1,0.2c0.2,0.3,0.3,0.5,0.5,0.8c0.3,0.6,0.7,1.2,1,1.7c0.3,0.6,0.7,1.2,1,1.7c0.2,0.4,0.4,0.7,0.6,1c0.2,0.4,0.5,0.9,0.7,1.3c0.2,0.4,0.4,0.7,0.6,1.1c0.2,0.4,0.4,0.8,0.7,1.2c0.1,0.3,0.3,0.5,0.4,0.7c1.4,2.7,2.8,5.4,4,7.9c0.4,0.8,0.7,1.6,1.1,2.3c0.2,0.5,0.5,1,0.7,1.4c0,0.1,0.1,0.2,0.1,0.3c0.4,0.8,0.7,1.6,1.1,2.4c0.8,1.8,1.6,3.5,2.3,5.2c0.5,1.7,0.9,3.4,0.9,5.2C899.1,224.1,898.3,227,896.8,229.6z" style="fill: #017197"/></g>
</svg>