<?xml version="1.0" encoding="utf-8"?>
<!-- Svg Vector Icons : http://www.onlinewebfonts.com/icon -->
<!DOCTYPE svg PUBLIC "-//W3C//DTD SVG 1.1//EN" "http://www.w3.org/Graphics/SVG/1.1/DTD/svg11.dtd">
<svg version="1.1" xmlns="http://www.w3.org/2000/svg" xmlns:xlink="http://www.w3.org/1999/xlink" x="0px" y="0px" viewBox="0 0 1000 1000" enable-background="new 0 0 1000 1000" xml:space="preserve">
<metadata> Svg Vector Icons : http://www.onlinewebfonts.com/icon </metadata>
<g><path d="M500,990c0,0-367.5-409.5-367.5-612.5C132.5,174.5,297,10,500,10c203,0,367.5,164.5,367.5,367.5C867.5,580.5,500,990,500,990L500,990z M500,57.1c-176.9,0-320.4,145.5-320.4,325.1S500,924,500,924s320.4-362.3,320.4-541.8C820.4,202.7,676.9,57.1,500,57.1L500,57.1z M500,500c-84.6,0-153.1-68.6-153.1-153.1c0-84.6,68.6-153.1,153.1-153.1c84.6,0,153.1,68.6,153.1,153.1C653.1,431.4,584.6,500,500,500L500,500z M500,236.2c-62.4,0-113.1,50.6-113.1,113.1c0,62.4,50.6,113.1,113.1,113.1c62.5,0,113.1-50.6,113.1-113.1C613.1,286.8,562.5,236.2,500,236.2L500,236.2z" style="fill: #017197"/></g>
</svg>