<?xml version="1.0" encoding="UTF-8" standalone="no"?>
<svg
   xmlns:dc="http://purl.org/dc/elements/1.1/"
   xmlns:cc="http://creativecommons.org/ns#"
   xmlns:rdf="http://www.w3.org/1999/02/22-rdf-syntax-ns#"
   xmlns:svg="http://www.w3.org/2000/svg"
   xmlns="http://www.w3.org/2000/svg"
   xmlns:sodipodi="http://sodipodi.sourceforge.net/DTD/sodipodi-0.dtd"
   xmlns:inkscape="http://www.inkscape.org/namespaces/inkscape"
   version="1.1"
   id="svg2"
   viewBox="0 0 3628.3465 3628.3464"
   height="1024mm"
   width="1024mm"
   inkscape:version="0.91 r13725"
   sodipodi:docname="nlane_personal_motif.svg">
  <sodipodi:namedview
     pagecolor="#017197"
     bordercolor="#017197"
     borderopacity="1"
     objecttolerance="10"
     gridtolerance="10"
     guidetolerance="10"
     inkscape:pageopacity="0"
     inkscape:pageshadow="2"
     inkscape:window-width="1280"
     inkscape:window-height="751"
     id="namedview16"
     showgrid="false"
     inkscape:zoom="0.13008681"
     inkscape:cx="1985.3482"
     inkscape:cy="1581.2951"
     inkscape:window-x="1778"
     inkscape:window-y="88"
     inkscape:window-maximized="0"
     inkscape:current-layer="svg2" />
  <defs
     id="defs4" />
  <metadata
     id="metadata7">
    <rdf:RDF>
      <cc:Work
         rdf:about="">
        <dc:format>image/svg+xml</dc:format>
        <dc:type
           rdf:resource="http://purl.org/dc/dcmitype/StillImage" />
        <dc:title />
      </cc:Work>
    </rdf:RDF>
  </metadata>
  <flowRoot
     xml:space="preserve"
     id="flowRoot4148"
     style="font-style:normal;font-variant:normal;font-weight:normal;font-stretch:normal;font-size:1000px;line-height:125%;font-family:Hack;-inkscape-font-specification:Hack;text-align:start;letter-spacing:0px;word-spacing:0px;writing-mode:lr-tb;text-anchor:start;fill:#017197;fill-opacity:1;stroke:none;stroke-width:1px;stroke-linecap:butt;stroke-linejoin:miter;stroke-opacity:1"
     transform="translate(0,2575.9843)"><flowRegion
       id="flowRegion4150"><rect
         id="rect4152"
         width="1802.1122"
         height="1583.9192"
         x="1050.5586"
         y="605.97003"
         style="font-style:normal;font-variant:normal;font-weight:normal;font-stretch:normal;font-family:Hack;-inkscape-font-specification:Hack" /></flowRegion><flowPara
       id="flowPara4154" /></flowRoot>  <g
     id="g4226"
     transform="matrix(0.88817796,0,0,0.88817796,198.42364,202.86461)">
    <path
       d="m 1433.1395,1221.2101 170.6944,0 601.373,1185.9261 -169.9294,0 z"
       style="font-style:normal;font-variant:normal;font-weight:normal;font-stretch:normal;font-size:medium;line-height:125%;font-family:Hack;-inkscape-font-specification:Hack;text-align:start;letter-spacing:0px;word-spacing:0px;writing-mode:lr-tb;text-anchor:start;fill:#017197;fill-opacity:1;stroke:none;stroke-width:1px;stroke-linecap:butt;stroke-linejoin:miter;stroke-opacity:1"
       id="path4191"
       inkscape:connector-curvature="0" />
    <path
       d="m 1304.7188,2536.4096 q -177.6684,0 -238.5629,-56.8265 -60.8945,-56.0589 -60.8945,-226.539 l 0,-183.5348 q 0,-115.1891 -37.96945,-160.497 -38.68588,-44.5398 -138.98264,-44.5398 l -83.10303,0 0,-109.8137 83.10303,0 q 101.01316,0 138.98264,-43.7719 37.96945,-44.5398 37.96945,-158.9612 l 0,-184.3028 q 0,-170.48 60.8945,-226.5388 59.4616,-56.0588 238.5629,-56.0588 l 45.8499,0 0,109.8138 -50.1483,0 q -100.2967,0 -130.3856,33.0209 -30.8056,33.0211 -30.8056,142.8346 l 0,190.4463 q 0,121.3326 -32.2382,175.0877 -15.7609,26.1095 -43.7007,45.3077 -27.9398,18.4303 -68.05851,28.4133 79.52091,20.734 111.75921,75.2569 32.2382,54.5229 32.2382,174.3197 l 0,190.4462 q 0,109.8138 30.8056,142.8348 30.0889,33.0208 130.3856,33.0208 l 50.1483,0 0,110.5816 -45.8499,0 0,0 z"
       style="font-style:normal;font-variant:normal;font-weight:normal;font-stretch:normal;font-size:medium;line-height:125%;font-family:Hack;-inkscape-font-specification:Hack;text-align:start;letter-spacing:0px;word-spacing:0px;writing-mode:lr-tb;text-anchor:start;fill:#017197;fill-opacity:1;stroke:none;stroke-width:1px;stroke-linecap:butt;stroke-linejoin:miter;stroke-opacity:1"
       id="path4189"
       inkscape:connector-curvature="0" />
    <path
       d="m 2283.4793,2432.7394 48.7153,0 q 100.2969,0 131.8187,-33.7888 30.8055,-33.021 30.8055,-142.0668 l 0,-190.4462 q 0,-119.7968 32.2382,-174.3197 32.2383,-54.5229 111.7594,-75.2569 -78.8048,-19.9662 -111.043,-73.7211 -15.7609,-26.1096 -24.3578,-67.5776 -8.5968,-42.2362 -8.5968,-107.5101 l 0,-190.4462 q 0,-109.0457 -30.8055,-142.0667 -31.5218,-33.7888 -131.8187,-33.7888 l -48.7153,0 0,-109.8137 44.4171,0 q 179.1013,0 238.5629,56.0587 60.178,56.8267 60.178,226.5387 l 0,184.3028 q 0,59.8985 15.0446,98.2948 15.0445,37.6285 45.1335,60.6664 28.6562,22.27 69.4914,33.0209 41.5514,10.751 90.9834,10.751 l 45.85,0 0,109.8138 -45.85,0 q -50.8649,0 -91.6999,11.5189 -40.8351,10.7511 -68.7749,33.0209 -30.089,23.8057 -45.1335,62.2023 -15.0446,38.3963 -15.0446,98.2947 l 0,183.5348 q 0,170.4801 -60.178,226.5389 -60.8944,56.8266 -238.5629,56.8266 l -44.4171,0 0,-110.5816 z"
       style="font-style:normal;font-variant:normal;font-weight:normal;font-stretch:normal;font-size:medium;line-height:125%;font-family:Hack;-inkscape-font-specification:Hack;text-align:start;letter-spacing:0px;word-spacing:0px;writing-mode:lr-tb;text-anchor:start;fill:#017197;fill-opacity:1;stroke:none;stroke-width:1px;stroke-linecap:butt;stroke-linejoin:miter;stroke-opacity:1"
       id="path4193"
       inkscape:connector-curvature="0" />
  </g>
  <path
     style="fill:none;stroke:#017197;stroke-width:269.41812134;stroke-linecap:round;stroke-linejoin:round;stroke-miterlimit:4;stroke-dasharray:none;stroke-opacity:1"
     id="path4178"
     d="m 1814.1733,3476.3057 -1439.44901,-831.0662 -5e-5,-1662.13248 1439.44896,-831.06629 1439.4489,831.0662 10e-5,1662.13247 z"
     inkscape:connector-curvature="0" />
</svg>
