<?xml version="1.0" encoding="utf-8"?>
<!-- Svg Vector Icons : http://www.onlinewebfonts.com/icon -->
<!DOCTYPE svg PUBLIC "-//W3C//DTD SVG 1.1//EN" "http://www.w3.org/Graphics/SVG/1.1/DTD/svg11.dtd">
<svg version="1.1" xmlns="http://www.w3.org/2000/svg" xmlns:xlink="http://www.w3.org/1999/xlink" x="0px" y="0px" viewBox="0 0 1000 1000" enable-background="new 0 0 1000 1000" xml:space="preserve">
<metadata> Svg Vector Icons : http://www.onlinewebfonts.com/icon </metadata>
<g><g transform="translate(0.000000,511.000000) scale(0.100000,-0.100000)"><path d="M4723.8,5004.5c-713.9-73.7-1272.4-341.6-1444.2-693.5l-49.1-102.3l-6.1-836.7l-6.1-836.7l-441.9-462.3c-245.5-253.7-507.3-527.8-583-607.6l-139.1-147.3v-2368.8c0-1524,8.2-2403.6,22.5-2460.9c34.8-157.5,126.8-315,272.1-468.4c374.4-394.8,998.3-650.5,1894.3-773.3c355.9-49.1,1157.8-49.1,1524,0c867.4,116.6,1511.7,382.5,1884,773.3c145.3,153.4,237.3,310.9,272.1,468.4c14.3,57.3,22.5,936.9,22.5,2460.9v2368.8l-149.3,157.5c-81.8,85.9-343.7,358-583,607.6l-431.6,452.1l-6.1,836.7l-6.1,836.7l-49.1,100.2c-147.3,300.7-607.5,560.5-1163.9,656.6C5378.4,4998.4,4877.3,5020.9,4723.8,5004.5z M5321.2,4687.5c433.7-47,806-186.2,1000.3-370.3c141.2-133,165.7-194.3,120.7-290.5c-71.6-151.4-341.6-331.4-634.2-419.4c-476.6-147.3-1190.6-141.2-1644.7,10.2c-298.7,100.2-533.9,259.8-605.5,409.1c-45,96.1-20.5,157.5,124.8,294.6C3983.3,4605.6,4672.7,4761.1,5321.2,4687.5z M3465.8,2001.5c233.2-253.7,634.2-433.7,1125.1-505.3c243.4-34.8,820.3-12.3,1049.4,40.9c450,104.3,840.8,339.6,1016.7,611.6c30.7,47.1,36.8,40.9,501.2-448l470.5-497.1l-2-98.2c-10.2-294.6-386.6-679.1-883.7-896c-245.5-108.4-597.3-212.7-914.4-268c-237.3-43-329.3-49.1-828.5-49.1c-499.1,0-591.2,6.1-828.5,49.1c-315,55.2-668.9,159.6-910.3,265.9c-505.3,220.9-877.6,599.4-887.8,898l-2,98.2l470.5,497.1c464.4,488.9,470.5,495,501.2,448C3359.4,2122.2,3414.6,2056.7,3465.8,2001.5z" style="fill: #017197"/></g></g>
</svg>